<?xml version="1.0" standalone="no"?>
<!DOCTYPE svg PUBLIC "-//W3C//DTD SVG 20010904//EN"
 "http://www.w3.org/TR/2001/REC-SVG-20010904/DTD/svg10.dtd">
<svg version="1.0" xmlns="http://www.w3.org/2000/svg"
 width="1024.000000pt" height="1024.000000pt" viewBox="0 0 1024.000000 1024.000000"
 preserveAspectRatio="xMidYMid meet">

<g transform="translate(0.000000,1024.000000) scale(0.100000,-0.100000)"
fill="#000000" stroke="none">
<path d="M6125 7358 c-154 -82 -368 -196 -475 -253 -107 -57 -276 -147 -375
-200 -99 -54 -261 -140 -360 -193 -99 -52 -252 -134 -340 -182 -88 -48 -239
-129 -335 -180 -96 -51 -179 -96 -183 -100 -5 -4 31 -32 80 -62 184 -115 213
-130 226 -120 7 6 109 62 227 125 118 63 334 178 480 257 146 78 337 181 425
228 88 47 219 118 292 159 72 40 134 73 136 73 3 0 -3 -30 -14 -67 -11 -38
-56 -198 -100 -358 -44 -159 -104 -373 -134 -475 -73 -251 -165 -571 -165
-575 0 -2 42 20 93 48 50 27 134 73 186 101 l94 51 74 260 c40 143 109 382
153 530 44 149 102 353 130 454 27 101 65 236 84 300 51 173 87 312 84 321 -2
4 -129 -59 -283 -142z"/>
<path d="M5320 6254 c-63 -36 -280 -155 -482 -266 -203 -110 -368 -205 -368
-212 0 -6 -18 -69 -40 -140 -22 -71 -38 -131 -35 -134 3 -3 5 -1 5 5 0 5 10
21 22 34 14 17 19 19 15 7 -5 -13 -1 -18 13 -18 17 0 19 5 15 30 -5 31 8 42
19 15 3 -8 10 -15 16 -15 6 0 8 5 5 10 -3 6 4 10 18 10 25 0 62 -32 50 -43 -3
-4 -1 -7 5 -7 15 0 16 26 2 35 -15 9 -12 25 5 25 8 0 15 -7 15 -15 0 -18 17
-20 23 -2 10 27 21 -7 21 -68 1 -36 2 -65 4 -65 9 0 42 97 39 112 -3 10 -1 18
4 18 5 0 9 8 9 18 0 22 34 52 58 52 10 0 56 22 103 49 46 26 94 51 107 55 20
7 21 5 15 -26 -3 -18 -21 -78 -40 -132 -36 -110 -39 -123 -18 -86 14 25 14 25
16 3 2 -36 4 -41 12 -49 6 -6 9 10 6 32 -3 22 66 33 74 12 3 -10 7 -10 20 1
11 9 17 10 17 2 0 -6 7 -11 16 -11 8 0 13 -4 9 -9 -3 -5 0 -15 7 -23 7 -7 14
-20 16 -28 8 -35 23 -34 17 1 -5 27 -3 38 8 42 21 8 29 -17 16 -49 -5 -15 -8
-28 -6 -30 7 -8 76 165 110 276 102 333 189 650 179 649 -4 0 -59 -29 -122
-65z"/>
<path d="M4520 5559 c0 -5 5 -7 10 -4 6 3 10 8 10 11 0 2 -4 4 -10 4 -5 0 -10
-5 -10 -11z"/>
<path d="M4375 5470 c-4 -12 -5 -24 -2 -27 3 -2 8 5 12 17 4 12 5 24 2 27 -3
2 -8 -5 -12 -17z"/>
<path d="M5055 5460 c3 -5 8 -10 11 -10 2 0 4 5 4 10 0 6 -5 10 -11 10 -5 0
-7 -4 -4 -10z"/>
<path d="M5130 5371 c0 -25 6 -27 13 -6 4 8 2 17 -3 20 -6 4 -10 -3 -10 -14z"/>
<path d="M4852 5352 c-7 -21 -7 -29 2 -29 6 0 12 13 13 29 0 15 -1 28 -2 28
-2 0 -7 -13 -13 -28z"/>
<path d="M2739 4002 c-159 -83 -186 -295 -53 -412 53 -46 93 -60 171 -60 52 0
80 6 118 25 86 41 85 40 85 154 l0 101 -110 0 -110 0 0 -35 0 -34 68 -3 67 -3
3 -47 c3 -41 0 -49 -23 -64 -15 -10 -50 -19 -79 -22 -185 -15 -261 220 -106
326 49 33 134 31 186 -4 l38 -26 23 28 c13 16 23 31 23 34 0 8 -59 43 -95 57
-16 6 -58 12 -91 12 -49 1 -73 -5 -115 -27z"/>
<path d="M4320 4010 c-91 -43 -139 -114 -148 -217 -4 -56 -1 -70 26 -126 47
-94 119 -137 231 -137 61 0 142 32 173 67 17 19 17 21 -7 43 -22 20 -29 22
-43 12 -36 -26 -98 -52 -127 -52 -40 0 -114 38 -139 72 -24 33 -33 122 -17
170 6 19 27 49 46 68 27 26 44 34 84 38 62 6 87 -1 136 -34 l39 -26 23 28 23
29 -27 23 c-50 41 -87 55 -158 59 -56 3 -79 0 -115 -17z"/>
<path d="M7225 4018 c-69 -25 -123 -76 -150 -142 -18 -42 -19 -134 -4 -187 29
-95 125 -159 239 -159 112 0 193 52 235 153 21 50 19 152 -4 202 -23 51 -98
118 -149 133 -48 15 -126 14 -167 0z m165 -83 c58 -30 90 -87 90 -161 0 -55
-18 -91 -64 -132 -84 -73 -209 -43 -257 62 -69 153 83 306 231 231z"/>
<path d="M2228 3912 c-26 -59 -72 -162 -103 -230 -30 -68 -55 -128 -55 -133 0
-6 19 -9 42 -7 l41 3 77 183 c42 101 80 184 84 185 8 2 86 -168 86 -185 0 -5
-29 -8 -64 -8 -36 0 -67 -4 -70 -8 -3 -5 3 -21 12 -36 16 -27 21 -29 91 -30
l73 -1 20 -52 19 -53 46 0 c32 0 44 4 40 13 -2 6 -51 114 -108 240 l-103 227
-40 0 -41 0 -47 -108z"/>
<path d="M3170 3780 l0 -240 185 0 185 0 0 35 0 35 -145 0 -146 0 3 66 3 66
121 -1 c119 -2 122 -2 126 21 10 57 7 58 -128 58 l-124 0 0 65 0 65 145 0 145
0 0 35 0 35 -185 0 -185 0 0 -240z"/>
<path d="M3640 3780 l0 -240 40 0 40 0 0 168 1 167 39 -45 c22 -25 81 -100
132 -167 90 -119 94 -123 130 -123 l38 0 0 240 0 240 -40 0 -40 0 0 -165 c0
-91 -3 -165 -7 -164 -8 0 -246 303 -251 319 -2 6 -21 10 -43 10 l-39 0 0 -240z"/>
<path d="M4720 3780 l0 -240 40 0 40 0 0 240 0 240 -40 0 -40 0 0 -240z"/>
<path d="M4998 3780 c-58 -132 -103 -240 -99 -241 3 -1 21 -2 40 -2 34 -2 34
-2 83 108 27 61 58 130 68 155 10 25 26 63 35 85 l17 40 38 -82 c61 -132 63
-123 -19 -123 -39 0 -71 -4 -71 -9 0 -4 5 -23 11 -41 l12 -33 77 7 77 6 20
-52 c20 -53 20 -53 67 -56 25 -2 46 -1 46 2 0 3 -29 67 -63 143 -35 76 -83
182 -106 236 l-43 97 -42 0 -42 0 -106 -240z"/>
<path d="M5611 4013 c0 -5 44 -111 98 -238 l97 -230 44 0 44 0 97 230 c54 127
98 233 98 238 1 4 -19 7 -42 7 l-44 0 -73 -185 c-40 -102 -75 -185 -79 -185
-3 0 -40 83 -81 185 l-75 185 -42 0 c-24 0 -43 -3 -42 -7z"/>
<path d="M6170 3940 l0 -80 40 0 40 0 0 45 0 45 145 0 145 0 0 35 0 35 -185 0
-185 0 0 -80z"/>
<path d="M6600 3985 l0 -35 80 0 80 0 0 -205 0 -205 40 0 40 0 2 203 3 202 83
3 82 3 0 34 0 35 -205 0 -205 0 0 -35z"/>
<path d="M7677 4013 c-4 -3 -7 -111 -7 -240 l0 -233 45 0 45 0 0 80 0 80 58 0
58 0 58 -79 c58 -78 59 -79 107 -83 27 -1 49 0 49 3 0 9 -97 136 -110 144 -19
12 -10 31 22 46 71 32 99 129 59 206 -34 68 -79 83 -242 83 -75 0 -139 -3
-142 -7z m288 -88 c33 -32 34 -89 3 -122 -19 -21 -30 -23 -115 -23 l-93 0 0
85 0 85 90 0 c83 0 93 -2 115 -25z"/>
<path d="M6313 3813 l-143 -4 0 -134 0 -135 185 0 185 0 0 35 0 35 -145 0
-145 0 0 65 0 65 130 0 130 0 0 40 c0 38 -2 40 -27 38 -16 -1 -92 -4 -170 -5z"/>
<path d="M3864 3291 c-6 -7 -5 -157 2 -259 l7 -92 62 0 c129 0 210 49 236 143
18 67 -20 152 -86 190 -19 11 -212 27 -221 18z m189 -35 c18 -7 43 -26 57 -41
22 -23 25 -36 25 -95 0 -59 -3 -72 -25 -95 -36 -39 -80 -55 -155 -55 l-65 0 0
143 c0 79 3 147 7 150 12 12 123 7 156 -7z"/>
<path d="M4370 3293 c-3 -50 2 -348 6 -352 16 -17 24 43 24 192 0 142 -2 167
-15 167 -8 0 -15 -3 -15 -7z"/>
<path d="M4695 3286 c-16 -7 -40 -24 -52 -37 -71 -77 -51 -228 37 -287 30 -20
45 -23 102 -20 48 3 75 9 95 24 25 19 28 28 31 93 l3 71 -71 0 c-54 0 -70 -3
-70 -14 0 -11 15 -16 53 -18 l52 -3 3 -46 c4 -59 -19 -81 -91 -86 -100 -8
-157 50 -157 158 0 63 27 114 70 136 40 20 123 16 152 -7 24 -18 38 -18 38 2
0 4 -15 17 -32 28 -39 23 -117 26 -163 6z"/>
<path d="M5110 3120 c0 -153 2 -180 15 -180 13 0 15 27 15 180 0 153 -2 180
-15 180 -13 0 -15 -27 -15 -180z"/>
<path d="M5838 3278 c-8 -13 -29 -59 -48 -103 -18 -44 -50 -115 -72 -158 -32
-65 -36 -78 -21 -75 12 2 40 52 88 155 38 84 74 151 78 150 11 -3 86 -175 79
-181 -3 -4 -34 -6 -69 -6 -47 0 -64 -3 -61 -12 3 -9 31 -14 81 -16 l77 -3 20
-44 c11 -25 27 -45 35 -45 11 0 7 16 -16 68 -17 37 -48 106 -70 155 -41 93
-67 137 -79 137 -4 0 -14 -10 -22 -22z"/>
<path d="M6209 3296 c-2 -2 -3 -83 -1 -180 l3 -176 114 0 c96 0 115 3 115 15
0 12 -18 15 -100 15 l-100 0 0 165 c0 131 -3 165 -13 165 -8 0 -16 -2 -18 -4z"/>
<path d="M5322 3278 c3 -8 27 -14 61 -16 l57 -3 2 -142 c0 -78 1 -148 1 -154
-1 -7 5 -13 13 -13 11 0 14 33 16 158 l3 157 58 0 c39 0 57 4 57 13 0 9 -34
12 -136 12 -104 0 -135 -3 -132 -12z"/>
</g>
</svg>
